<svg width="190" height="235" viewBox="0 0 190 235" fill="none" xmlns="http://www.w3.org/2000/svg">
<path fill-rule="evenodd" clip-rule="evenodd" d="M77.3146 19.576C53.5692 6.72798 26.9973 0 0 0V8.83626C25.5295 8.83626 50.6566 15.1984 73.1109 27.3479C95.5652 39.4973 114.639 57.0511 128.609 78.4231C142.578 99.795 151.004 124.312 153.123 149.757C155.1 173.489 151.534 197.331 142.737 219.409L131.721 186.16C131.026 184.063 128.763 182.926 126.666 183.621C124.569 184.316 123.432 186.579 124.127 188.676L138.442 231.88C138.776 232.887 139.496 233.72 140.444 234.196C141.392 234.673 142.491 234.753 143.498 234.419L186.693 220.101C188.79 219.406 189.927 217.143 189.232 215.046C188.536 212.949 186.273 211.812 184.176 212.507L150.554 223.651C160.141 200.033 164.047 174.468 161.928 149.024C159.686 122.115 150.776 96.1887 136.003 73.5879C121.23 50.9871 101.06 32.424 77.3146 19.576Z" fill="#E50000"/>
</svg>
