<svg width="189" height="235" viewBox="0 0 189 235" fill="none" xmlns="http://www.w3.org/2000/svg">
<path fill-rule="evenodd" clip-rule="evenodd" d="M111.197 19.5762C134.943 6.72803 161.515 0 188.512 0V8.83643C162.983 8.83643 137.855 15.1987 115.401 27.3481C92.9468 39.4976 73.873 57.0513 59.9033 78.4233C45.9336 99.7954 37.5082 124.312 35.3885 149.757C33.3721 173.964 37.1228 198.287 46.3098 220.735L57.7148 186.313C58.4098 184.216 60.673 183.079 62.7698 183.774C64.8667 184.469 66.0033 186.732 65.3083 188.829L50.9934 232.033C50.6597 233.04 49.9396 233.873 48.9916 234.35C48.0435 234.826 46.9451 234.906 45.9381 234.572L2.74219 220.254C0.645386 219.56 -0.490845 217.296 0.204224 215.199C0.899292 213.102 3.1626 211.965 5.2594 212.66L37.8862 223.475C28.3511 199.905 24.4701 174.404 26.5844 149.024C28.8259 122.115 37.7357 96.189 52.5085 73.5879C67.2815 50.9873 87.452 32.4243 111.197 19.5762ZM44.4067 225.636L44.7334 225.493L44.6583 225.719L44.4067 225.636Z" fill="#E50000"/>
</svg>
