<svg width="353" height="328" viewBox="0 0 353 328" fill="none" xmlns="http://www.w3.org/2000/svg">
<path d="M291.372 189.345L305.402 232.643L348.7 218.613" stroke="#E50000" stroke-width="8" stroke-linecap="round" stroke-linejoin="round"/>
<path d="M164.674 1.08013C191.675 1.25959 218.207 8.16405 241.87 21.1696C265.534 34.1752 285.584 52.8719 300.209 75.5704C314.834 98.2689 323.573 124.254 325.636 151.177C327.699 178.1 323.021 205.113 312.025 229.775L303.955 226.176C314.353 202.856 318.776 177.311 316.826 151.852C314.875 126.393 306.611 101.821 292.781 80.3564C278.951 58.892 259.991 41.2118 237.614 28.9134C215.237 16.615 190.149 10.0859 164.615 9.91619L164.674 1.08013Z" fill="#E50000"/>
</svg>
