<svg width="351" height="301" viewBox="0 0 351 301" fill="none" xmlns="http://www.w3.org/2000/svg">
<path d="M214.629 292.917H160.45L164.921 227.597H210.195L214.629 292.917Z" fill="#DFDFDF"/>
<path d="M221.746 282.446C221.076 281.477 219.995 280.881 218.803 280.881H188.807H186.31H156.314C155.122 280.881 154.041 281.477 153.37 282.446L145.173 294.668C143.608 297.015 145.285 300.183 148.117 300.183H186.31H188.807H227C229.832 300.183 231.509 297.015 229.944 294.668L221.746 282.446Z" fill="#B40000"/>
<path d="M320.193 244.962H54.924C46.5027 244.962 39.6838 238.143 39.6838 229.722V61.9306C39.6838 53.5094 46.5027 46.6904 54.924 46.6904H320.193C328.614 46.6904 335.433 53.5094 335.433 61.9306V229.685C335.433 238.143 328.614 244.962 320.193 244.962Z" fill="#B40000"/>
<path d="M321.795 59.8408H53.2841V229.793H321.795V59.8408Z" fill="#FEFEFE"/>
<path d="M315.088 78.3633H59.9916V229.796H315.088V78.3633Z" fill="#DFDFDF"/>
<path d="M315.088 78.3633H59.9916V90.8833H315.088V78.3633Z" fill="#DFDFDF"/>
<path d="M302.717 131.72H223.498V142.19H302.717V131.72Z" fill="#FEFEFE"/>
<path d="M302.717 150.202H223.498V160.673H302.717V150.202Z" fill="#FEFEFE"/>
<path d="M302.717 168.724H223.498V179.194H302.717V168.724Z" fill="#FEFEFE"/>
<path d="M162.761 103.438H83.5413V113.909H162.761V103.438Z" fill="#FEFEFE"/>
<path d="M162.761 121.921H83.5413V132.392H162.761V121.921Z" fill="#FEFEFE"/>
<path d="M159.072 125.163H9.50183C4.24788 125.163 0 129.411 0 134.628V182.845C0 188.099 4.24788 192.347 9.50183 192.347H103.216L138.913 222.678L121.959 192.347H159.072C164.326 192.347 168.574 188.099 168.574 182.845V134.628C168.536 129.411 164.289 125.163 159.072 125.163Z" fill="#E50000"/>
<path d="M157.171 138.168H56.3771V143.981H157.171V138.168Z" fill="white"/>
<path d="M157.171 150.017H56.3771V155.829H157.171V150.017Z" fill="white"/>
<path d="M157.171 161.864H56.3771V167.677H157.171V161.864Z" fill="white"/>
<path d="M123.263 173.68H56.3771V179.493H123.263V173.68Z" fill="white"/>
<path d="M48.3662 157.732C48.3662 168.464 39.6469 177.183 28.9155 177.183C18.184 177.183 9.46472 168.464 9.46472 157.732C9.46472 147.001 18.184 138.281 28.9155 138.281C39.6469 138.281 48.3662 147.001 48.3662 157.732Z" fill="#181818"/>
<path d="M28.9155 157.618C31.9407 157.618 34.393 155.082 34.393 151.954C34.393 148.826 31.9407 146.29 28.9155 146.29C25.8904 146.29 23.438 148.826 23.438 151.954C23.438 155.082 25.8904 157.618 28.9155 157.618Z" fill="white"/>
<path d="M29.0267 158.437H28.8404C23.4747 158.437 19.115 162.796 19.115 168.162V174.385C22.0214 176.099 25.3378 177.142 28.9522 177.142C32.5666 177.142 35.8829 176.099 38.7894 174.385V168.162C38.7894 162.833 34.4297 158.437 29.0267 158.437Z" fill="white"/>
<path d="M340.538 0H190.968C185.714 0 181.466 4.24788 181.466 9.50183V57.719C181.466 62.9729 185.714 67.2208 190.968 67.2208H234.266L222.678 97.5521L253.01 67.2208H340.538C345.792 67.2208 350.04 62.9729 350.04 57.719V9.50183C350.003 4.24788 345.755 0 340.538 0Z" fill="#DFDFDF"/>
<path d="M338.637 13.0049H237.843V18.8178H338.637V13.0049Z" fill="white"/>
<path d="M338.637 24.8535H237.843V30.6664H338.637V24.8535Z" fill="white"/>
<path d="M338.637 36.7051H237.843V42.518H338.637V36.7051Z" fill="white"/>
<path d="M304.728 48.5137H237.843V54.3266H304.728V48.5137Z" fill="white"/>
<path d="M229.832 32.569C229.832 43.3004 221.113 52.0197 210.382 52.0197C199.65 52.0197 190.931 43.3004 190.931 32.569C190.931 21.8375 199.65 13.1182 210.382 13.1182C221.15 13.1182 229.832 21.8375 229.832 32.569Z" fill="#181818"/>
<path d="M215.897 26.7908C215.897 29.9208 213.437 32.4546 210.419 32.4546C207.401 32.4546 204.941 29.9208 204.941 26.7908C204.941 23.6608 207.401 21.127 210.419 21.127C213.437 21.127 215.897 23.6608 215.897 26.7908Z" fill="white"/>
<path d="M210.493 33.3105H210.306C204.941 33.3105 200.581 37.6701 200.581 43.0358V49.2586C203.487 50.9726 206.804 52.016 210.418 52.016C214.033 52.016 217.349 50.9726 220.255 49.2586V43.0358C220.255 37.6701 215.896 33.3105 210.493 33.3105Z" fill="white"/>
<path d="M298.582 220.517H239.26C234.416 220.517 230.541 216.604 230.541 211.76V204.867C230.541 200.023 234.453 196.11 239.26 196.11H298.582C303.426 196.11 307.338 200.023 307.338 204.867V211.76C307.338 216.604 303.426 220.517 298.582 220.517Z" fill="#E50000"/>
<path d="M196.595 118.83C192.608 119.612 188.434 119.687 184.596 119.351C183.18 119.24 181.764 118.904 180.386 118.42C180.572 123.413 180.609 135.113 177.069 139.995C177.069 139.995 178.336 145.77 188.732 145.919C199.129 146.106 200.284 138.243 200.284 138.243C200.284 138.243 196.818 126.17 196.595 118.83Z" fill="white"/>
<path d="M177.107 140.181C177.144 140.293 177.181 140.405 177.256 140.591C177.256 140.591 177.256 140.628 177.293 140.628C177.368 140.814 177.479 141.001 177.628 141.224C177.628 141.224 177.628 141.224 177.628 141.262C177.777 141.485 177.964 141.746 178.15 142.007C178.187 142.044 178.225 142.081 178.225 142.119C178.672 142.64 179.268 143.236 180.125 143.758C180.162 143.795 180.199 143.833 180.274 143.833C180.684 144.093 181.168 144.354 181.69 144.578C181.764 144.615 181.839 144.652 181.914 144.652C182.472 144.876 183.069 145.1 183.739 145.286C184.075 142.64 185.081 140.069 186.795 137.908C189.85 134.07 193.912 131.834 198.495 131.126C197.601 127.214 196.707 122.481 196.595 118.83C192.608 119.612 188.434 119.687 184.596 119.351C183.18 119.24 181.764 118.904 180.386 118.42C180.572 123.413 180.609 135.113 177.069 139.995C177.069 139.995 177.069 140.069 177.107 140.106C177.107 140.144 177.107 140.144 177.107 140.181Z" fill="#E50000"/>
<path d="M182.212 90.7694C182.212 90.7694 199.24 85.739 201.96 89.8751C204.681 94.0112 204.196 100.681 205.314 103.588C206.432 106.531 210.68 109.624 211.127 110.779C211.574 111.972 208.295 114.207 207.848 115.102C207.401 116.033 205.687 125.647 202.706 127.808C199.762 129.932 183.888 124.268 179.939 116.778C176.026 109.326 177.628 93.2287 182.212 90.7694Z" fill="white"/>
<path d="M189.962 93.7512C189.962 93.7512 190.484 97.9245 188.174 102.545C187.168 104.594 192.235 109.997 190.819 112.457C189.888 114.096 188.509 113.686 187.242 110.445C186.795 109.327 185.603 108.581 184.485 108.097C180.312 106.308 179.343 112.643 183.069 114.543C185.677 115.848 184.112 122.48 184.112 122.48C181.318 124.641 172.002 122.033 173.045 115.251C173.679 110.929 173.977 109.289 172.487 108.246C169.729 106.346 166.189 101.055 170.698 96.5831C176.921 90.3976 171.257 88.4599 178.411 86.6714C185.603 84.8828 191.527 89.2797 189.962 93.7512Z" fill="#181818"/>
<path d="M177.256 90.1376C177.666 88.5726 180.498 86.5604 181.876 85.5171C184.038 83.9148 186.534 82.8715 189.217 82.2007C191.863 81.53 194.732 81.4182 197.415 81.9399C199.762 82.3871 201.7 83.4304 204.085 83.6912C206.283 83.9521 208.482 83.8403 210.009 82.5361C210.494 83.9893 210.494 86.933 210.307 87.9391C209.935 90.063 208.519 91.9634 207.252 93.8638C203.787 99.0059 194.397 101.875 187.764 99.155C184.559 97.8508 181.69 96.6957 180.125 93.901C179.231 92.2615 178.523 91.479 177.256 90.1376Z" fill="#181818"/>
<path d="M268.176 101.241L284.645 137.795C284.645 137.795 279.839 143.236 278.199 142.006C276.597 140.814 251.892 111.153 249.47 109.588C247.085 108.06 268.176 101.241 268.176 101.241Z" fill="#181818"/>
<path d="M227.336 105.787C227.336 105.787 227.411 116.295 233.82 118.717C233.82 118.717 266.759 105.079 273.392 103.775C280.025 102.471 304.133 102.247 304.133 102.247L279.838 58.8369C279.838 58.8369 268.175 82.1257 257.556 89.7644C246.899 97.4032 227.336 105.787 227.336 105.787Z" fill="#E50000"/>
<path d="M248.724 112.681C251.333 111.638 254.053 110.557 256.736 109.551C252.711 105.005 250.587 98.6706 249.805 94.6836C247.308 96.0996 244.7 97.4783 242.204 98.7824C243.321 104.484 245.706 109.179 248.724 112.681Z" fill="#181818"/>
<path d="M313.114 70.0159C319.97 86.5603 317.548 103.291 307.711 107.39C297.873 111.489 284.31 101.353 277.454 84.809C270.597 68.2646 273.02 51.5339 282.857 47.4351C292.694 43.3735 306.257 53.4715 313.114 70.0159Z" fill="#5B5B5B"/>
<path d="M311.772 70.5737C317.622 84.6587 315.535 98.8929 307.151 102.358C298.767 105.824 287.253 97.2533 281.403 83.1683C275.553 69.0832 277.64 54.8491 286.024 51.3837C294.408 47.8811 305.959 56.4886 311.772 70.5737Z" fill="#181818"/>
<path d="M266.014 127.55C265.232 127.066 265.455 124.122 265.604 123.377C265.865 122.184 266.685 120.619 265.865 119.464C264.412 117.452 262.325 122.892 262.064 123.675C261.543 125.202 261.356 126.209 261.692 127.289C261.953 128.183 263.592 131.015 264.859 132.059C264.71 132.618 264.524 133.177 264.337 133.773C265.902 134.481 266.797 134.891 268.324 135.785C269.927 136.716 269.815 137.834 271.305 138.84L272.796 135.412C272.125 134.667 267.318 128.37 266.014 127.55Z" fill="white"/>
<path d="M276.559 115.587C275.143 114.059 272.907 114.656 271.193 115.885C269.927 116.817 266.312 119.723 267.281 121.847C268.101 123.599 272.758 119.686 272.758 119.686C271.044 121.177 267.84 122.332 268.66 123.822C269.554 125.462 273.615 123.114 274.51 122.481C273.578 122.704 269.032 125.462 270.858 126.915C272.088 127.884 275.441 125.834 276.447 125.126C275.106 125.536 273.28 126.729 273.653 128.592C274.249 129.598 276.261 128.927 277.379 128.48C279.093 127.772 280.695 127.511 280.807 125.387C280.844 124.977 280.882 124.642 280.882 124.232C280.807 122.704 280.099 120.953 279.391 119.611C278.609 118.196 277.677 116.78 276.559 115.587Z" fill="white"/>
<path d="M103.141 127.731C102.322 126.501 101.725 125.085 101.241 123.669C100.831 122.44 100.533 121.21 100.086 120.017C99.6761 118.862 99.1916 117.67 99.2662 116.44C99.3034 115.658 99.4897 115.024 99.7133 114.242C99.9742 113.31 100.31 112.416 100.496 111.447C100.682 110.59 100.608 109.808 100.757 108.951C101.055 107.386 101.427 105.746 102.21 104.33C102.843 103.25 103.514 102.355 104.334 101.424C104.781 100.939 105.079 100.529 105.601 100.082C106.085 99.6724 106.532 99.2625 106.756 98.6663C107.054 97.8093 106.607 97.064 105.787 96.8405C104.334 96.4679 102.024 97.1386 101.129 98.3682C99.8996 100.082 99.3034 102.169 97.9247 103.808C93.7141 108.839 89.7271 102.914 84.8085 100.79C83.3925 100.194 81.2686 98.6291 80.0389 97.7348C79.1446 97.0641 75.3812 93.4869 73.5926 94.4184C72.2884 95.1264 74.8595 98.1446 76.0892 98.8526C76.5736 99.1507 80.8214 102.579 81.3431 102.728C80.1135 102.504 76.8717 100.38 74.2633 98.331C72.4002 96.8777 70.5744 95.4245 69.5683 96.2443C66.4383 98.8154 78.7348 104.703 79.7036 105.224C78.6602 105.299 69.0466 98.48 68.1151 101.014C67.6307 102.393 69.6056 103.771 71.2451 104.666C73.2945 105.783 76.7226 106.566 77.5051 107.162C76.0519 107.646 69.6801 103.324 69.6801 105.97C69.6801 107.721 73.6299 108.988 75.1203 109.472C76.6481 109.957 81.1568 113.012 82.61 113.683C87.3796 115.956 89.3545 115.695 91.2176 118.527C92.4099 120.353 94.5339 129.966 96.2852 133.618L103.141 127.731Z" fill="white"/>
<path d="M263.368 132.466C259.12 144.837 250.028 166.71 247.048 165.182C241.421 162.313 229.311 152.401 220.256 146.365C213.251 141.67 209.748 140.291 209.748 140.291L216.045 170.138C216.045 170.138 245.892 192.793 252.152 189.328C257.071 186.608 269.181 152.14 273.429 137.832C273.429 137.869 263.443 132.54 263.368 132.466Z" fill="#5B5B5B"/>
<path d="M233.819 175.056C230.466 170.696 217.61 158.102 214.145 155.456L215.151 169.616C215.151 169.616 245.222 192.234 251.892 189.402C246.153 185.713 237.881 180.384 233.819 175.056Z" fill="#5B5B5B"/>
<path d="M159.109 141.857C159.109 141.857 122.406 156.687 118.419 155.644C114.431 154.6 101.129 116.742 101.129 116.742L90.0248 121.251C90.0248 121.251 101.911 175.84 109.55 178.374C117.189 180.907 162.76 167.754 162.76 167.754C162.76 167.754 163.431 154.563 159.109 141.857Z" fill="#5B5B5B"/>
<path d="M127.809 175.018C124.567 176.173 121.288 177.328 117.971 178.297C133.547 176.248 162.723 167.826 162.723 167.826C162.723 167.826 163.021 161.753 161.941 153.965C152.849 163.728 140.031 170.621 127.809 175.018Z" fill="#5B5B5B"/>
<path d="M294.408 80.6345C292.731 75.455 287.663 72.4741 283.117 73.9273C281.552 74.4489 280.285 75.4178 279.317 76.6847C279.838 78.8086 280.546 80.9698 281.441 83.131C282.968 86.8572 284.943 90.1735 287.104 93.0055C287.812 92.9682 288.52 92.8937 289.191 92.6701C293.737 91.2169 296.085 85.8139 294.408 80.6345Z" fill="#DFDFDF"/>
<path d="M159.183 186.536C157.879 199.279 156.873 226.033 156.128 229.797H216.343C217.424 209.787 217.051 180.834 216.045 170.178C214.331 151.621 209.748 140.331 209.748 140.331C209.748 140.331 205.239 138.915 199.911 136.865C199.911 136.865 188.844 143.647 178.522 136.94C178.522 136.94 159.891 141.337 157.655 142.417C155.755 143.274 160.562 172.935 159.183 186.536Z" fill="#5B5B5B"/>
<path d="M175.094 203.974C175.02 198.012 173.902 192.125 171.666 186.61C171.144 185.343 170.734 184.076 170.548 182.698C170.026 178.711 169.169 176.065 168.014 173.792C166.636 171.743 165.294 169.73 163.953 167.681C163.208 166.675 162.425 165.632 161.568 164.365C160.45 162.725 158.773 159.744 157.879 157.844C158.587 167.197 159.854 179.679 159.146 186.498C157.842 199.242 156.836 225.996 156.09 229.76H184.112C180.497 225.139 178.336 219.475 176.249 212.582C175.392 209.824 175.131 206.918 175.094 203.974Z" fill="#5B5B5B"/>
</svg>
