<svg width="422" height="360" viewBox="0 0 422 360" fill="none" xmlns="http://www.w3.org/2000/svg">
<path d="M124.592 201.747L138.372 216.037L156.214 207.401L146.856 224.931L160.584 239.221L141.046 235.726L131.688 253.203L128.962 233.567L109.475 230.071L127.317 221.384L124.592 201.747Z" fill="white"/>
<path d="M221.537 280.198C192.098 292.169 160.482 290.141 134.012 277.329C110.906 266.101 91.7087 246.661 81.269 220.989C68.8007 190.32 71.5219 157.228 85.8704 130.072C97.2997 108.455 116.101 90.6479 140.493 80.7054C169.883 68.7842 201.549 70.7629 228.019 83.6238L259.784 18.1814C254.143 15.4608 248.305 12.9875 242.417 10.8605L223.22 31.6854C215.897 29.5089 208.475 27.8765 200.856 26.7883L191.653 0.324439C185.419 -0.071282 179.135 -0.071282 172.852 0.176044L163.402 25.9969C155.634 26.7883 147.816 28.2228 140.048 30.2509L121.89 9.97015C118.921 11.0089 116.002 12.0972 113.083 13.2843C110.164 14.4715 107.294 15.7576 104.424 17.0437L105.562 43.8538C98.3387 47.7615 91.5108 52.2134 85.1282 57.061L61.1317 45.4861C56.4313 49.6907 51.9288 54.0931 47.7727 58.6933L58.9052 82.6345C53.71 89.065 49.0592 95.8912 45.002 103.064L18.68 101.58C15.9588 107.219 13.4849 113.056 11.3574 118.942L30.7525 136.799C28.4765 144.713 26.7943 152.776 25.8048 160.987L0.818659 169.792C0.42284 176.025 0.42284 182.307 0.670227 188.589L25.7058 197.74C26.6459 205.704 28.2292 213.717 30.4556 221.632L10.4668 239.538C11.5058 242.506 12.5943 245.424 13.7817 248.343C14.9692 251.261 16.2556 254.13 17.542 256.999L44.7051 255.862C48.6633 262.836 53.0668 269.415 57.9651 275.549L46.041 300.331C50.2466 305.03 54.6501 309.531 59.2515 313.686L84.6334 301.864C90.6697 306.563 97.1018 310.768 103.732 314.428L102.148 342.722C107.789 345.492 113.627 347.916 119.515 350.043L139.059 328.773C146.134 330.653 153.308 332.087 160.631 332.978L170.279 360.53C176.513 360.876 182.797 360.926 189.08 360.678L199.273 332.78C206.199 331.84 213.126 330.455 220.004 328.575L239.993 350.934C242.961 349.895 245.88 348.807 248.8 347.619C251.719 346.432 254.588 345.146 257.458 343.86L256.221 313.488C262.208 310.026 267.898 306.217 273.291 302.111L300.8 315.368C305.501 311.164 309.954 306.761 314.159 302.161L301.196 274.263C305.303 268.92 309.063 263.331 312.477 257.543L343.252 259.225C345.973 253.586 348.447 247.749 350.575 241.863L283.384 213.519C274.033 242.753 252.214 267.733 221.537 280.198Z" fill="url(#paint0_radial_1403_566)"/>
<path d="M102.544 208.029L146.777 163.708L181.411 179.388L197.195 214.014L152.417 258.879C181.758 269.712 216.045 263.479 239.795 240.082C272.648 207.781 273.043 155.002 240.784 122.157C208.475 89.3121 155.683 88.9164 122.83 121.168C99.1303 144.565 92.3024 178.547 102.544 208.029Z" fill="#E50000"/>
<path d="M389.315 45.3376L185.815 133.633L217.53 206.743L421.08 118.447L389.315 45.3376ZM274.973 156.14L262.01 126.263L376.352 76.6491L389.315 106.526L274.973 156.14Z" fill="#E50000"/>
<path d="M281.461 119.442L264.258 126.904L275.975 153.904L293.178 146.443L281.461 119.442Z" fill="#E50000"/>
<path d="M300.302 111.171L283.099 118.633L294.816 145.633L312.019 138.172L300.302 111.171Z" fill="#E50000"/>
<path d="M319.315 103.162L302.112 110.624L313.829 137.624L331.032 130.163L319.315 103.162Z" fill="#E50000"/>
<path d="M337.904 95.0928L320.701 102.554L332.417 129.555L349.62 122.093L337.904 95.0928Z" fill="#E50000"/>
<defs>
<radialGradient id="paint0_radial_1403_566" cx="0" cy="0" r="1" gradientUnits="userSpaceOnUse" gradientTransform="translate(176 180.375) rotate(-13.1782) scale(210.544 194.349)">
<stop offset="0.0762706" stop-color="white"/>
<stop offset="0.502132" stop-color="#9FA0A0"/>
<stop offset="0.835097" stop-color="#5B5B5B"/>
</radialGradient>
</defs>
</svg>
